<?xml version="1.0" standalone="no"?>
<!DOCTYPE svg PUBLIC "-//W3C//DTD SVG 20010904//EN"
 "http://www.w3.org/TR/2001/REC-SVG-20010904/DTD/svg10.dtd">
<svg version="1.0" xmlns="http://www.w3.org/2000/svg"
 width="512.000000pt" height="512.000000pt" viewBox="0 0 512.000000 512.000000"
 preserveAspectRatio="xMidYMid meet">

<g transform="translate(0.000000,512.000000) scale(0.100000,-0.100000)"
fill="#000000" stroke="none">
<path d="M1 4018 l1 -1103 22 120 c79 413 256 799 520 1135 81 102 312 331
416 411 117 90 206 149 214 142 3 -4 6 -1 6 5 0 6 45 36 100 67 276 155 575
258 881 304 l124 19 -1142 1 -1143 1 1 -1102z"/>
<path d="M2959 5099 c430 -65 854 -248 1198 -516 114 -89 304 -273 296 -286
-3 -5 -2 -7 4 -4 5 3 30 -17 54 -46 323 -380 520 -807 602 -1307 2 -14 5 471
6 1078 l1 1102 -1142 -1 -1143 -1 124 -19z"/>
<path d="M1370 3866 c-306 -65 -551 -287 -631 -572 -26 -92 -32 -279 -10 -354
43 -150 155 -290 323 -402 l37 -24 -91 -59 c-104 -67 -252 -203 -297 -274 -56
-86 -74 -153 -75 -276 -1 -97 2 -119 27 -185 49 -132 161 -258 311 -349 216
-130 548 -171 818 -102 252 65 501 260 606 475 54 111 67 169 67 306 0 140
-19 214 -77 306 -61 97 -238 240 -375 303 l-53 24 98 96 c219 215 305 423 261
633 -43 204 -228 371 -484 439 -103 27 -357 35 -455 15z m265 -420 c111 -29
181 -81 221 -161 23 -47 26 -64 22 -127 -4 -86 -38 -166 -119 -284 -61 -88
-44 -88 -225 -9 -150 64 -195 90 -275 157 -79 65 -103 116 -97 204 3 51 10 72
35 106 35 49 127 104 195 117 67 14 188 12 243 -3z m-133 -1122 c357 -144 488
-233 508 -344 24 -133 -77 -248 -260 -296 -91 -25 -284 -24 -365 0 -135 40
-230 113 -280 213 -25 50 -29 70 -30 143 0 71 4 93 24 129 39 75 190 220 228
221 7 0 86 -30 175 -66z"/>
<path d="M3550 3733 c-493 -510 -727 -884 -809 -1289 -86 -428 24 -819 293
-1036 207 -167 518 -218 809 -133 311 90 561 341 637 640 37 141 25 372 -25
520 -67 197 -213 353 -399 427 -78 31 -86 32 -226 33 -122 0 -158 -4 -223 -23
-84 -24 -195 -76 -266 -125 l-44 -30 34 62 c132 242 429 526 841 805 48 33 87
61 85 62 -5 6 -549 234 -556 234 -5 0 -73 -66 -151 -147z m200 -1263 c20 -5
57 -23 82 -39 214 -136 245 -516 57 -685 -74 -66 -141 -89 -264 -90 -92 -1
-105 2 -166 30 -176 83 -269 267 -269 533 0 144 -10 126 111 187 37 19 103 43
146 53 86 22 245 27 303 11z"/>
<path d="M1 1103 l-1 -1103 1143 1 c722 1 1116 5 1072 10 -446 58 -918 258
-1274 543 -108 86 -282 257 -274 269 3 5 2 7 -4 4 -17 -10 -162 169 -266 328
-195 300 -327 640 -386 995 -5 35 -9 -347 -10 -1047z"/>
<path d="M5097 2095 c-39 -228 -122 -473 -236 -699 -79 -156 -209 -359 -224
-349 -5 3 -7 2 -4 -4 11 -17 -159 -226 -176 -216 -6 3 -7 1 -4 -4 8 -12 -166
-183 -269 -264 -106 -85 -230 -169 -238 -162 -3 3 -6 1 -6 -5 0 -13 -165 -107
-298 -169 -200 -93 -514 -183 -737 -212 -44 -5 350 -9 1073 -10 l1142 -1 0
1100 c0 605 -1 1100 -3 1100 -1 0 -11 -47 -20 -105z"/>
</g>
</svg>
